<svg width="156" viewBox="0 0 156 174" fill="none" xmlns="http://www.w3.org/2000/svg">
<path d="M96 156.5C96 158.798 95.5473 161.074 94.6679 163.197C93.7884 165.32 92.4994 167.249 90.8744 168.874C89.2493 170.499 87.3202 171.788 85.197 172.668C83.0738 173.547 80.7981 174 78.5 174C76.2019 174 73.9262 173.547 71.803 172.668C69.6798 171.788 67.7507 170.499 66.1256 168.874C64.5006 167.249 63.2116 165.32 62.3321 163.197C61.4527 161.074 61 158.798 61 156.5L78.5 156.5H96Z" fill="#474747"/>
<path d="M129.896 113.448C130.293 123.56 133.967 133.687 141.077 141.5H13.3703C20.6688 133.286 24.2301 122.621 24.2942 112.1C24.3871 96.8287 26.1415 73.2204 34.2276 53.7945C38.2298 44.1795 43.5595 36.1407 50.4828 30.5418C57.2348 25.0816 66.0308 21.5 78 21.5C98.1699 21.5 110.66 34.5942 118.776 54.4274C126.932 74.3573 129.305 98.3896 129.896 113.448Z" stroke="#474747" stroke-width="21"/>
<rect x="70" width="16" height="26" rx="8" fill="#474747"/>
</svg>
