<svg width="65" height="77" viewBox="0 0 65 77" fill="none" xmlns="http://www.w3.org/2000/svg">
<path d="M56.5526 68.4059C39.0453 77.5137 17.6188 70.8322 8.65633 53.6042C-0.306147 36.3762 6.52185 14.9959 24.0291 5.8881C26.1719 4.77336 27.5043 4.35057 28.2529 4.23769C28.3057 4.43429 28.3659 4.71639 28.4177 5.10899C28.5677 6.24777 28.5836 7.77692 28.514 9.78159C28.4798 10.7673 28.4239 11.8594 28.364 13.0304C28.1931 16.3705 27.9894 20.3523 28.162 24.3356C28.3991 29.8058 29.3418 35.816 32.2188 41.3463C35.0958 46.8766 39.4762 51.0985 43.8193 54.4326C46.9819 56.8604 50.3593 58.9791 53.1924 60.7565C54.1857 61.3796 55.1121 61.9607 55.9388 62.4985C57.6203 63.5923 58.8633 64.483 59.7097 65.2596C60.0014 65.5273 60.1979 65.7385 60.3285 65.8946C59.8064 66.4428 58.6954 67.2912 56.5526 68.4059Z" stroke="#474747" stroke-width="8"/>
</svg>
