<svg width="94" height="93" viewBox="0 0 94 93" fill="none" xmlns="http://www.w3.org/2000/svg">
<circle cx="48" cy="46" r="16" stroke="#474747" stroke-width="8"/>
<rect x="72.2892" y="14.3506" width="8" height="16" rx="4" transform="rotate(39.2972 72.2892 14.3506)" fill="#474747"/>
<rect x="79.2775" y="69.9106" width="8" height="16" rx="4" transform="rotate(128.273 79.2775 69.9106)" fill="#474747"/>
<rect x="34.2775" y="25.9106" width="8" height="16" rx="4" transform="rotate(128.273 34.2775 25.9106)" fill="#474747"/>
<rect x="71" y="49" width="10" height="23" rx="5" transform="rotate(-90 71 49)" fill="#474747"/>
<rect y="49" width="10" height="25" rx="5" transform="rotate(-90 0 49)" fill="#474747"/>
<rect x="45" width="10" height="23" rx="5" fill="#474747"/>
<rect x="45" y="70" width="10" height="23" rx="5" fill="#474747"/>
<rect x="29.1335" y="61" width="8" height="16" rx="4" transform="rotate(39.2972 29.1335 61)" fill="#474747"/>
</svg>
